<?xml version="1.0" encoding="UTF-8" standalone="no"?>
<!-- Created with Inkscape (http://www.inkscape.org/) -->

<svg
   width="293.82623mm"
   height="84.666664mm"
   viewBox="0 0 293.82623 84.666664"
   version="1.1"
   id="svg5"
   sodipodi:docname="logo-header.svg"
   inkscape:version="1.2.2 (b0a8486541, 2022-12-01)"
   xmlns:inkscape="http://www.inkscape.org/namespaces/inkscape"
   xmlns:sodipodi="http://sodipodi.sourceforge.net/DTD/sodipodi-0.dtd"
   xmlns="http://www.w3.org/2000/svg"
   xmlns:svg="http://www.w3.org/2000/svg">
  <sodipodi:namedview
     id="namedview7"
     pagecolor="#ffffff"
     bordercolor="#666666"
     borderopacity="1.0"
     inkscape:showpageshadow="2"
     inkscape:pageopacity="0.0"
     inkscape:pagecheckerboard="0"
     inkscape:deskcolor="#d1d1d1"
     inkscape:document-units="px"
     showgrid="false"
     inkscape:zoom="0.67704826"
     inkscape:cx="233.36593"
     inkscape:cy="353.0029"
     inkscape:window-width="1920"
     inkscape:window-height="1011"
     inkscape:window-x="0"
     inkscape:window-y="32"
     inkscape:window-maximized="1"
     inkscape:current-layer="g20996" />
  <defs
     id="defs2" />
  <g
     inkscape:label="Layer 1"
     inkscape:groupmode="layer"
     id="layer1"
     transform="translate(-40.489277,-54.833261)">
    <g
       id="g19517"
       transform="translate(0,-7.6101602)"
       inkscape:export-filename="logo-header.png"
       inkscape:export-xdpi="14.4"
       inkscape:export-ydpi="14.4">
      <path
         sodipodi:type="star"
         style="fill:#5e81ac;fill-opacity:1;fill-rule:evenodd;stroke:none;stroke-width:0.305752;stroke-linecap:round;stroke-opacity:1;paint-order:markers fill stroke"
         id="path10580"
         inkscape:flatsided="true"
         sodipodi:sides="6"
         sodipodi:cx="79.338402"
         sodipodi:cy="36.979561"
         sodipodi:r1="48.843582"
         sodipodi:r2="42.299778"
         sodipodi:arg1="0.52359878"
         sodipodi:arg2="1.0471976"
         inkscape:rounded="0"
         inkscape:randomized="0"
         d="M 121.63818,61.401352 79.338402,85.823143 37.038619,61.401352 l 0,-48.843582 42.299783,-24.421791 42.299778,24.421791 z"
         transform="matrix(0.8667123,0,0,0.8667123,8.3874504,72.726114)" />
      <g
         id="g11361"
         transform="rotate(-120,77.151019,104.77675)"
         inkscape:export-filename="logo4.png"
         inkscape:export-xdpi="96"
         inkscape:export-ydpi="96">
        <g
           id="g959"
           transform="matrix(0.55425626,0,0,0.55425626,26.186601,-28.781169)"
           style="stroke-width:1.80422">
          <rect
             style="fill:#2e3440;fill-rule:evenodd;stroke-width:0.478116;stroke-linecap:round;paint-order:markers fill stroke"
             id="rect396"
             width="13.229167"
             height="39.6875"
             x="37.711407"
             y="221.12407"
             rx="3.9145927"
             ry="3.9145927" />
          <rect
             style="fill:#2e3440;fill-rule:evenodd;stroke-width:0.478116;stroke-linecap:round;paint-order:markers fill stroke"
             id="rect398"
             width="79.375"
             height="26.458334"
             x="52.263489"
             y="227.73865"
             rx="3.9145927"
             ry="3.9145932" />
          <rect
             style="fill:#2e3440;fill-rule:evenodd;stroke-width:0.478116;stroke-linecap:round;paint-order:markers fill stroke"
             id="rect954"
             width="13.229167"
             height="39.6875"
             x="132.96143"
             y="221.12407"
             rx="3.9145927"
             ry="3.9145927" />
        </g>
        <path
           id="path3658"
           style="fill:#d8dee9;fill-opacity:1;fill-rule:evenodd;stroke:none;stroke-width:0.264998;stroke-linecap:round;stroke-opacity:1;paint-order:markers fill stroke"
           d="m 72.560545,90.857328 a 14.664749,14.664749 0 0 0 -3.085954,1.435624 l 0.0731,3.728371 a 11.604052,11.604052 0 0 0 -3.21991,4.576687 l -3.526669,1.1945 a 14.664749,14.664749 0 0 0 -0.314795,2.98434 14.664749,14.664749 0 0 0 0.01511,0.40607 l 3.265455,1.80075 a 11.604052,11.604052 0 0 0 2.353601,5.07693 l -0.728719,3.65143 a 14.664749,14.664749 0 0 0 2.786277,1.9548 l 3.192163,-1.92762 a 11.604052,11.604052 0 0 0 3.780808,0.64164 11.604052,11.604052 0 0 0 1.792708,-0.14161 l 2.797952,2.45694 a 14.664749,14.664749 0 0 0 3.085761,-1.43562 l -0.07309,-3.72837 a 11.604052,11.604052 0 0 0 3.219913,-4.57669 l 3.526666,-1.1945 a 14.664749,14.664749 0 0 0 0.314801,-2.98415 14.664749,14.664749 0 0 0 -0.0059,-0.4011 l -3.266798,-1.80151 a 11.604052,11.604052 0 0 0 -2.361253,-5.083052 l 0.730055,-3.657359 a 14.664749,14.664749 0 0 0 -2.77939,-1.952124 l -3.192162,1.927426 a 11.604052,11.604052 0 0 0 -3.789416,-0.636475 11.604052,11.604052 0 0 0 -1.79252,0.141613 z m 4.590469,9.961902 a 3.9575335,3.9575335 0 0 1 3.957434,3.95762 3.9575335,3.9575335 0 0 1 -3.957434,3.95743 3.9575335,3.9575335 0 0 1 -3.957623,-3.95743 3.9575335,3.9575335 0 0 1 3.957623,-3.95762 z"
           inkscape:export-filename="logo3.png"
           inkscape:export-xdpi="96"
           inkscape:export-ydpi="96" />
      </g>
    </g>
    <g
       aria-label="fs2-data"
       id="text14122"
       style="font-weight:bold;font-size:25.4px;line-height:1.25;font-family:'Liberation Sans';-inkscape-font-specification:'Liberation Sans Bold';letter-spacing:0px;word-spacing:0px;stroke-width:0.264583">
      <g
         id="g20996">
        <g
           id="g21044"
           transform="matrix(2.1276592,0,0,2.1276592,-143.96983,-109.57081)"
           style="stroke-width:0.124354">
          <path
             d="m 133.10363,95.182219 v 11.062891 h -3.47266 V 95.182219 h -1.95957 v -2.356445 h 1.95957 v -1.401465 q 0,-1.823145 0.96739,-2.703711 0.96738,-0.880566 2.93935,-0.880566 0.97979,0 2.20762,0.198437 v 2.244824 q -0.5085,-0.111621 -1.01699,-0.111621 -0.89297,0 -1.26504,0.359668 -0.35967,0.347266 -0.35967,1.240235 v 1.054199 h 2.6417 v 2.356445 z"
             style="fill:#2e3440;stroke-width:0.124354"
             id="path20971" />
          <path
             d="m 148.78019,102.32597 q 0,1.94717 -1.5999,3.06338 -1.5875,1.10381 -4.40283,1.10381 -2.76573,0 -4.24161,-0.86817 -1.46347,-0.88056 -1.94716,-2.72851 l 3.06338,-0.45889 q 0.26044,0.95498 0.89296,1.35186 0.64493,0.39687 2.23243,0.39687 1.46347,0 2.1332,-0.37207 0.66973,-0.37207 0.66973,-1.16582 0,-0.64492 -0.54571,-1.01699 -0.5333,-0.38447 -1.82314,-0.64492 -2.95176,-0.58291 -3.98115,-1.079008 -1.0294,-0.508496 -1.5751,-1.302246 -0.5333,-0.806152 -0.5333,-1.971973 0,-1.922363 1.47588,-2.988965 1.48828,-1.079003 4.20439,-1.079003 2.39365,0 3.84473,0.930175 1.46347,0.930176 1.82314,2.691309 l -3.08818,0.322461 q -0.14883,-0.818555 -0.73174,-1.21543 -0.58291,-0.409277 -1.84795,-0.409277 -1.24023,0 -1.86035,0.322461 -0.62012,0.310058 -0.62012,1.054199 0,0.58291 0.47129,0.930176 0.48369,0.334863 1.61231,0.558105 1.57509,0.322461 2.79052,0.669727 1.22783,0.334863 1.95957,0.806152 0.74414,0.471289 1.17823,1.215427 0.44648,0.73174 0.44648,1.88516 z"
             style="fill:#2e3440;stroke-width:0.124354"
             id="path20973" />
          <path
             d="m 150.70255,106.24511 v -2.41846 q 0.68213,-1.50068 1.93477,-2.92695 1.26504,-1.42627 3.175,-2.976563 1.83555,-1.488281 2.56728,-2.455664 0.74414,-0.967383 0.74414,-1.897559 0,-2.282031 -2.29443,-2.282031 -1.11621,0 -1.71152,0.607715 -0.58291,0.595313 -0.75655,1.79834 L 150.85138,93.4955 q 0.29766,-2.430859 1.81074,-3.7083 1.52549,-1.277442 4.14239,-1.277442 2.82773,0 4.34082,1.289844 1.51308,1.289844 1.51308,3.621484 0,1.227832 -0.48369,2.22002 -0.48369,0.992187 -1.24023,1.835547 -0.75655,0.830957 -1.68672,1.562695 -0.91778,0.731738 -1.78594,1.426272 -0.86816,0.69453 -1.5875,1.40146 -0.70693,0.70694 -1.0542,1.51309 h 8.11113 v 2.86494 z"
             style="fill:#2e3440;stroke-width:0.124354"
             id="path20975" />
          <path
             d="m 164.94044,101.17255 v -3.026171 h 6.44922 v 3.026171 z"
             style="fill:#2e3440;stroke-width:0.124354"
             id="path20977" />
          <path
             d="m 182.87423,106.24511 q -0.0496,-0.18604 -0.12402,-0.93018 -0.062,-0.75654 -0.062,-1.25263 h -0.0496 q -1.12862,2.43086 -4.29121,2.43086 -2.34405,0 -3.62149,-1.82315 -1.27744,-1.83554 -1.27744,-5.122166 0,-3.33623 1.33945,-5.146973 1.35186,-1.823144 3.81993,-1.823144 1.42627,0 2.45566,0.595312 1.0418,0.595313 1.5999,1.773536 h 0.0248 l -0.0248,-2.207618 v -4.898925 h 3.48506 v 15.478128 q 0,1.24023 0.0992,2.92695 z M 182.713,99.461028 q 0,-2.17041 -0.73174,-3.336231 -0.71933,-1.178222 -2.1332,-1.178222 -1.40146,0 -2.08359,1.141015 -0.68213,1.128613 -0.68213,3.460254 0,4.564066 2.74092,4.564066 1.37666,0 2.1332,-1.20303 0.75654,-1.21543 0.75654,-3.447852 z"
             style="fill:#2e3440;stroke-width:0.124354"
             id="path20979" />
          <path
             d="m 192.79611,106.49316 q -1.94717,0 -3.03858,-1.0542 -1.0914,-1.0666 -1.0914,-2.98897 0,-2.08359 1.35185,-3.174998 1.36426,-1.091406 3.94395,-1.11621 l 2.88974,-0.04961 v -0.682129 q 0,-1.314648 -0.45888,-1.947168 -0.45889,-0.644922 -1.50069,-0.644922 -0.96738,0 -1.42627,0.446485 -0.44648,0.434082 -0.5581,1.451074 l -3.63389,-0.173633 q 0.33486,-1.95957 1.78594,-2.96416 1.46348,-1.016992 3.98115,-1.016992 2.54248,0 3.91914,1.252637 1.37666,1.252636 1.37666,3.559472 v 4.886524 q 0,1.12861 0.24805,1.56269 0.26045,0.42168 0.85576,0.42168 0.39688,0 0.76895,-0.0744 v 1.88516 q -0.31006,0.0744 -0.55811,0.13642 -0.24805,0.062 -0.49609,0.0992 -0.24805,0.0372 -0.5333,0.062 -0.27286,0.0248 -0.64493,0.0248 -1.31464,0 -1.94716,-0.64492 -0.62012,-0.64493 -0.74414,-1.89756 h -0.0744 q -1.46348,2.6417 -4.41523,2.6417 z m 4.05556,-6.46162 -1.78593,0.0248 q -1.21543,0.0496 -1.72393,0.27285 -0.5085,0.21084 -0.78135,0.65733 -0.26045,0.44648 -0.26045,1.19062 0,0.95498 0.43408,1.42627 0.44649,0.45889 1.17823,0.45889 0.81855,0 1.48828,-0.44649 0.68213,-0.44648 1.0666,-1.22783 0.38447,-0.79375 0.38447,-1.67432 z"
             style="fill:#2e3440;stroke-width:0.124354"
             id="path20981" />
          <path
             d="m 207.25724,106.46835 q -1.53789,0 -2.36885,-0.83096 -0.83095,-0.84335 -0.83095,-2.54248 v -7.912691 h -1.69913 v -2.356445 h 1.87276 l 1.0914,-3.150195 h 2.18282 v 3.150195 h 2.54248 v 2.356445 h -2.54248 v 6.970121 q 0,0.97978 0.37207,1.45107 0.37207,0.45889 1.15342,0.45889 0.40927,0 1.16582,-0.17364 v 2.15801 q -1.28985,0.42168 -2.93936,0.42168 z"
             style="fill:#2e3440;stroke-width:0.124354"
             id="path20983" />
          <path
             d="m 215.38077,106.49316 q -1.94716,0 -3.03857,-1.0542 -1.09141,-1.0666 -1.09141,-2.98897 0,-2.08359 1.35186,-3.174998 1.36426,-1.091406 3.94394,-1.11621 l 2.88975,-0.04961 v -0.682129 q 0,-1.314648 -0.45889,-1.947168 -0.45888,-0.644922 -1.50068,-0.644922 -0.96738,0 -1.42627,0.446485 -0.44648,0.434082 -0.55811,1.451074 l -3.63388,-0.173633 q 0.33486,-1.95957 1.78594,-2.96416 1.46347,-1.016992 3.98115,-1.016992 2.54248,0 3.91914,1.252637 1.37666,1.252636 1.37666,3.559472 v 4.886524 q 0,1.12861 0.24805,1.56269 0.26044,0.42168 0.85576,0.42168 0.39687,0 0.76894,-0.0744 v 1.88516 q -0.31006,0.0744 -0.5581,0.13642 -0.24805,0.062 -0.4961,0.0992 -0.24804,0.0372 -0.5333,0.062 -0.27285,0.0248 -0.64492,0.0248 -1.31465,0 -1.94717,-0.64492 -0.62011,-0.64493 -0.74414,-1.89756 h -0.0744 q -1.46348,2.6417 -4.41524,2.6417 z m 4.05557,-6.46162 -1.78594,0.0248 q -1.21543,0.0496 -1.72392,0.27285 -0.5085,0.21084 -0.78135,0.65733 -0.26045,0.44648 -0.26045,1.19062 0,0.95498 0.43408,1.42627 0.44649,0.45889 1.17822,0.45889 0.81856,0 1.48829,-0.44649 0.68212,-0.44648 1.0666,-1.22783 0.38447,-0.79375 0.38447,-1.67432 z"
             style="fill:#2e3440;stroke-width:0.124354"
             id="path20985" />
        </g>
      </g>
    </g>
  </g>
</svg>
